{"title":"The Adjustment Bureau 2011 PPRIP IFLIX","uid":6361920,"size":1341841797,"categoryP":"video","categoryS":"movies","magnet":"?xt=urn:btih:3ae9213b1a5ec4d74a7427bf8ec30c1095f618e0&amp;dn=The+Adjustment+Bureau+2011+PPRIP+IFLIX&amp;tr=udp%3A%2F%2Ftracker.openbittorrent.com%3A80&amp;tr=udp%3A%2F%2Fopen.demonii.com%3A1337&amp;tr=udp%3A%2F%2Ftracker.coppersurfer.tk%3A6969&amp;tr=udp%3A%2F%2Fexodus.desync.com%3A6969","seeders":1,"leechers":0,"uploader":"IwannaFan2","files":7,"time":1304362437,"description":"The Adjustment Bureau 2011 PPRIP IFLIX &lt;a href=&quot;\nhttp://www.imdb.com/title/tt1385826/&quot; rel=&quot;nofollow&quot; target=&quot;_NEW&quot;&gt;\nhttp://www.imdb.com/title/tt1385826/&lt;/a&gt;\n\nLanguage                         : English\nFormat                           : AVI\nFormat/Info                      : Audio Video Interleave\nFormat profile                   : OpenDML\nFile size                        : 1.24 GiB\nDuration                         : 1h 45mn\nOverall bit rate                 : 1 695 Kbps\n\nVideo\nID                               : 0\nFormat                           : MPEG-4 Visual\nFormat profile                   : Simple@L3\nFormat settings, BVOP            : No\nFormat settings, QPel            : No\nFormat settings, GMC             : No warppoints\nFormat settings, Matrix          : Default (H.263)\nCodec ID                         : XVID\nCodec ID/Hint                    : XviD\nDuration                         : 1h 45mn\nBit rate                         : 1 549 Kbps\nWidth                            : 720 pixels\nHeight                           : 480 pixels\nDisplay aspect ratio             : 1.500\nFrame rate                       : 29.970 fps\nOriginal frame rate              : 29.000 fps\nStandard                         : NTSC\nResolution                       : 24 bits\nColorimetry                      : 4:2:0\nScan type                        : Progressive\nBits/(Pixel*Frame)               : 0.150\nStream size                      : 1.14 GiB (91%)\nWriting library                  : XviD 1.2.1 (UTC 2008-12-04)\n\nAudio\nID                               : 1\nFormat                           : MPEG Audio\nFormat version                   : Version 1\nFormat profile                   : Layer 3\nFormat_Settings_Mode             : Joint stereo / MS Stereo\nCodec ID                         : 55\nCodec ID/Hint                    : MP3\nDuration                         : 1h 45mn\nBit rate mode                    : Constant\nBit rate                         : 128 Kbps\nChannel(s)                       : 2 channels\nSampling rate                    : 44.1 KHz\nResolution                       : 16 bits\nStream size                      : 96.2 MiB (8%)\nAlignment                        : Aligned on interleaves\nInterleave, duration             : 26 ms (0.78 video frame)\nWriting library                  : LAME3.98.2\n\nRelease notes...\n\nAnother quality release from IFLIX\nMore to come very soon!\n\nVideo source: Ours\nAudio source: Ours\n\nGreetings to all other groups out there. You all do awesome work and we greatly appreciate it.\nIFLIX :-)","torrent":{"xt":"urn:btih:3ae9213b1a5ec4d74a7427bf8ec30c1095f618e0","amp;dn":"The+Adjustment+Bureau+2011+PPRIP+IFLIX","amp;tr":["udp%3A%2F%2Ftracker.openbittorrent.com%3A80","udp%3A%2F%2Fopen.demonii.com%3A1337","udp%3A%2F%2Ftracker.coppersurfer.tk%3A6969","udp%3A%2F%2Fexodus.desync.com%3A6969"],"infoHash":"3ae9213b1a5ec4d74a7427bf8ec30c1095f618e0","infoHashBuffer":{"type":"Buffer","data":[58,233,33,59,26,94,196,215,74,116,39,191,142,195,12,16,149,246,24,224]},"announce":[],"urlList":[]}}